<svg xmlns="http://www.w3.org/2000/svg" viewBox="0 0 800 500">
  <defs>
    <linearGradient id="g" x1="0" y1="0" x2="1" y2="1">
      <stop offset="0" stop-color="#294199"/>
      <stop offset="0.55" stop-color="#4361ee"/>
      <stop offset="1" stop-color="#f26e26"/>
    </linearGradient>
    <radialGradient id="blob" cx="0.5" cy="0.4" r="0.8">
      <stop offset="0" stop-color="#4361ee" stop-opacity="0.25"/>
      <stop offset="1" stop-color="#4361ee" stop-opacity="0"/>
    </radialGradient>
  </defs>
  <rect width="800" height="500" fill="#eef0f7"/>
  <rect x="40" y="28" width="720" height="444" rx="22" fill="#ffffff"/>
  <rect x="40" y="28" width="720" height="444" rx="22" fill="none" stroke="#dde1ee"/>
  <rect x="40" y="28" width="720" height="444" rx="22" fill="url(#blob)"/>
  <rect x="90" y="80" width="110" height="22" rx="11" fill="#ffffff" stroke="#dde1ee"/>
  <rect x="610" y="80" width="100" height="26" rx="13" fill="url(#g)"/>
  <rect x="90" y="140" width="360" height="26" rx="13" fill="#eef0f7"/>
  <rect x="90" y="196" width="420" height="46" rx="10" fill="#111827"/>
  <rect x="90" y="258" width="470" height="16" rx="8" fill="#c3cad9"/>
  <rect x="90" y="286" width="430" height="16" rx="8" fill="#c3cad9"/>
  <rect x="90" y="336" width="180" height="44" rx="22" fill="url(#g)"/>
  <rect x="600" y="210" width="120" height="120" rx="60" fill="#ffffff" stroke="#dde1ee"/>
  <circle cx="660" cy="270" r="40" fill="url(#g)"/>
  <text x="660" y="278" font-family="Arial, sans-serif" font-size="26" font-weight="700" text-anchor="middle" fill="#ffffff">A</text>
</svg>
