<svg xmlns="http://www.w3.org/2000/svg" viewBox="0 0 800 500" width="800" height="500">
  <defs>
    <linearGradient id="acc" x1="0" y1="0" x2="1" y2="1"><stop offset="0" stop-color="#e879f9"/><stop offset="1" stop-color="#818cf8"/></linearGradient>
    <radialGradient id="glow" cx="0.5" cy="0.4" r="0.8"><stop offset="0" stop-color="#e879f9" stop-opacity="0.4"/><stop offset="1" stop-color="#e879f9" stop-opacity="0"/></radialGradient>
  </defs>
  <rect width="800" height="500" fill="#0a0c14"/>
  <rect width="800" height="500" fill="url(#glow)"/>
  <g stroke="#ffffff" stroke-opacity="0.035"><path d="M0 100h800M0 200h800M0 300h800M0 400h800"/><path d="M160 0v500M320 0v500M480 0v500M640 0v500"/></g>
  <g transform="translate(400,245)" fill="none" stroke="url(#acc)" stroke-opacity="0.55" stroke-width="2.5" stroke-linejoin="round">
    <rect x="-155" y="-90" width="310" height="180" rx="12"/>
    <circle cx="-115" cy="-48" r="10"/>
    <circle cx="-62" cy="-48" r="10"/>
    <circle cx="-9" cy="-48" r="10"/>
    <path d="M-95 80 V25 H60 V80"/>
    <path d="M-115 -20 h200 M-115 10 h160 M-115 40 h120"/>
  </g>
  <rect x="330" y="430" width="140" height="4" rx="2" fill="url(#acc)"/>
  <circle cx="120" cy="380" r="4" fill="#e879f9"/>
</svg>
