<svg xmlns="http://www.w3.org/2000/svg" viewBox="0 0 800 500" width="800" height="500">
  <defs>
    <linearGradient id="acc" x1="0" y1="0" x2="1" y2="1"><stop offset="0" stop-color="#818cf8"/><stop offset="1" stop-color="#a855f7"/></linearGradient>
    <radialGradient id="glow" cx="0.5" cy="0.4" r="0.8"><stop offset="0" stop-color="#818cf8" stop-opacity="0.45"/><stop offset="1" stop-color="#818cf8" stop-opacity="0"/></radialGradient>
  </defs>
  <rect width="800" height="500" fill="#0a0c14"/>
  <rect width="800" height="500" fill="url(#glow)"/>
  <g stroke="#ffffff" stroke-opacity="0.035"><path d="M0 100h800M0 200h800M0 300h800M0 400h800"/><path d="M160 0v500M320 0v500M480 0v500M640 0v500"/></g>
  <g transform="translate(400,235)">
    <g fill="none" stroke="url(#acc)" stroke-opacity="0.6" stroke-width="2.5" stroke-linejoin="round">
      <rect x="-160" y="-45" width="200" height="130" rx="10"/>
      <rect x="-60" y="10" width="180" height="130" rx="10"/>
    </g>
    <g fill="#818cf8"><rect x="-130" y="-20" width="90" height="8" rx="4" opacity="0.85"/><rect x="40" y="35" width="90" height="8" rx="4" opacity="0.85"/></g>
    <circle cx="90" cy="-60" r="5" fill="#a855f7"/>
  </g>
  <rect x="330" y="430" width="140" height="4" rx="2" fill="url(#acc)"/>
  <circle cx="120" cy="120" r="4" fill="#c084fc"/>
</svg>
